<mxfile host="app.diagrams.net" modified="2024-06-26T02:52:12.178Z" agent="Mozilla/5.0 (Windows NT 10.0; Win64; x64) AppleWebKit/537.36 (KHTML, like Gecko) Chrome/127.0.0.0 Safari/537.36" version="24.6.3" etag="K4KSMW_hS1Vc1p-8YVfD" type="github">
  <diagram name="第 1 页" id="zEXDD2FExHUsoHwwKP6a">
    <mxGraphModel>
      <root>
        <mxCell id="0" />
        <mxCell id="1" parent="0" />
      </root>
    </mxGraphModel>
  </diagram>
</mxfile>
